<?xml version="1.0" standalone="no"?>
<!DOCTYPE svg PUBLIC "-//W3C//DTD SVG 20010904//EN"
 "http://www.w3.org/TR/2001/REC-SVG-20010904/DTD/svg10.dtd">
<svg version="1.0" xmlns="http://www.w3.org/2000/svg"
 width="1024.000000pt" height="1024.000000pt" viewBox="0 0 1024.000000 1024.000000"
 preserveAspectRatio="xMidYMid meet">

<g transform="translate(0.000000,1024.000000) scale(0.100000,-0.100000)"
fill="#000000" stroke="none">
<path d="M4812 8102 c-21 -21 -45 -58 -54 -82 -9 -25 -33 -92 -54 -150 -93
-265 -385 -966 -567 -1360 -14 -30 -36 -82 -50 -115 -14 -34 -53 -116 -86
-183 -34 -67 -61 -124 -61 -126 0 -4 -30 -67 -180 -381 -32 -66 -88 -183 -124
-260 -144 -300 -526 -1055 -623 -1230 -19 -33 -54 -98 -78 -145 -47 -89 -205
-356 -315 -531 -238 -380 -610 -767 -967 -1005 -270 -179 -588 -316 -868 -374
-33 -7 -73 -16 -89 -21 -16 -5 -46 -9 -67 -9 -23 0 -39 -5 -39 -11 0 -20 334
15 485 51 22 5 60 14 85 19 128 30 244 68 399 130 371 151 692 378 974 690
101 111 292 368 376 506 84 136 106 172 144 232 15 24 27 45 27 49 0 3 8 18
19 32 46 67 353 678 476 947 43 94 95 208 117 255 23 47 74 162 115 255 41 94
80 184 88 200 7 17 43 102 80 190 70 166 90 213 132 305 14 30 70 164 124 296
54 133 128 311 164 395 36 85 70 163 74 174 5 11 13 31 20 45 21 47 124 295
136 330 8 19 41 100 75 180 34 80 88 210 120 290 69 173 97 235 114 249 20 17
44 -18 57 -82 17 -85 -8 -201 -107 -492 -106 -310 -326 -979 -389 -1180 -25
-82 -55 -172 -65 -200 -11 -27 -29 -81 -41 -120 -37 -124 -160 -504 -236 -735
-89 -270 -173 -555 -173 -587 0 -13 6 -23 14 -23 15 0 145 129 177 176 29 42
83 153 96 199 7 22 29 94 48 160 20 66 70 221 110 345 93 280 129 396 225 727
28 99 46 118 107 118 133 -1 203 -105 203 -304 0 -108 -9 -175 -46 -341 -47
-217 -62 -285 -74 -345 -6 -33 -16 -78 -20 -100 -5 -22 -16 -83 -25 -135 -9
-52 -25 -138 -35 -190 -32 -164 -59 -309 -90 -485 -16 -93 -34 -192 -40 -220
-5 -27 -15 -75 -20 -105 -14 -78 -92 -347 -134 -465 -54 -149 -169 -370 -244
-470 -132 -176 -368 -395 -596 -553 -171 -119 -440 -273 -616 -354 l-35 -16
30 -8 c37 -9 395 12 450 27 100 27 138 40 212 70 94 40 241 122 332 186 126
89 436 409 493 509 9 16 31 54 50 84 115 187 200 461 258 825 11 72 23 144 26
160 19 110 45 261 54 320 7 39 15 88 20 110 5 22 16 90 25 150 16 105 40 249
71 420 8 44 24 130 35 190 11 61 26 148 34 195 30 183 36 214 45 229 6 11 10
5 15 -24 10 -63 44 -252 60 -335 26 -128 33 -169 70 -390 20 -118 48 -278 61
-355 14 -77 40 -247 59 -378 108 -735 218 -1047 476 -1348 218 -253 475 -457
692 -547 92 -39 246 -77 363 -91 110 -13 321 -14 328 -2 3 5 -19 19 -49 31
-67 27 -319 166 -430 238 -274 175 -521 380 -661 548 -149 178 -239 331 -319
544 -26 69 -51 134 -55 145 -50 126 -117 446 -211 1010 -4 28 -12 73 -18 100
-5 28 -21 106 -34 175 -22 110 -53 263 -77 370 -4 19 -22 105 -39 190 -17 85
-36 173 -41 195 -21 83 -30 243 -19 323 19 139 76 203 185 210 57 4 63 2 78
-20 22 -33 77 -198 128 -383 23 -82 63 -213 90 -290 60 -171 70 -205 148 -470
57 -195 101 -305 152 -379 32 -48 130 -146 161 -162 25 -13 27 -13 27 4 0 49
-73 297 -220 752 -54 168 -117 366 -140 440 -23 74 -52 167 -65 205 -12 39
-59 180 -103 315 -82 253 -337 1031 -424 1294 -59 179 -71 279 -44 351 11 28
24 45 34 45 19 0 19 0 92 -180 28 -69 67 -161 87 -205 19 -44 41 -93 49 -110
7 -16 22 -52 32 -80 20 -51 88 -216 207 -500 37 -88 98 -236 136 -330 151
-369 129 -317 194 -463 25 -56 45 -104 45 -107 0 -2 13 -33 29 -67 15 -35 58
-135 95 -223 63 -148 103 -239 193 -435 19 -41 53 -118 75 -170 23 -52 72
-160 110 -240 38 -80 81 -172 95 -205 29 -66 284 -571 341 -675 352 -643 638
-1004 1042 -1311 121 -92 181 -129 332 -208 183 -95 425 -189 598 -232 196
-48 344 -72 528 -85 73 -5 102 -3 102 5 0 6 -13 11 -30 11 -16 0 -49 4 -72 10
-185 43 -236 56 -333 87 -60 19 -119 38 -130 43 -192 78 -319 139 -450 219
-371 224 -791 654 -1057 1081 -126 203 -272 455 -375 650 -22 41 -54 100 -71
130 -79 141 -474 925 -690 1370 -113 233 -212 442 -212 445 0 2 -18 43 -41 92
-23 48 -68 149 -101 223 -33 74 -75 167 -92 205 -52 111 -96 216 -236 560 -45
110 -88 214 -95 230 -32 70 -121 300 -162 420 -49 144 -78 196 -126 225 -46
28 -113 26 -159 -5 -35 -24 -108 -113 -108 -133 0 -5 -7 -15 -15 -22 -12 -10
-15 -7 -21 17 -13 53 -68 124 -116 149 -15 8 -52 14 -83 14 -50 0 -58 -3 -93
-38z m323 -519 c4 -16 26 -89 50 -163 24 -74 81 -250 126 -390 45 -140 106
-329 135 -420 30 -91 54 -168 54 -171 0 -3 -27 -9 -59 -12 -33 -3 -84 -16
-113 -29 -81 -38 -172 -142 -192 -221 -7 -31 -24 -35 -32 -9 -23 76 -82 158
-146 203 -40 29 -126 59 -166 59 -20 0 -35 6 -38 15 -3 8 23 104 59 212 36
109 84 259 107 333 41 130 152 479 170 530 5 14 12 40 15 58 8 39 23 42 30 5z"/>
</g>
</svg>
